<?xml version="1.0" encoding="utf-8"?>
<!-- Generator: Adobe Illustrator 15.0.0, SVG Export Plug-In . SVG Version: 6.00 Build 0)  -->
<!DOCTYPE svg PUBLIC "-//W3C//DTD SVG 1.1//EN" "http://www.w3.org/Graphics/SVG/1.1/DTD/svg11.dtd">
<svg version="1.1" id="Layer_1" xmlns="http://www.w3.org/2000/svg" xmlns:xlink="http://www.w3.org/1999/xlink" x="0px" y="0px"
	 viewBox="0 0 166.5 56" enable-background="new 0 0 166.5 56" xml:space="preserve">
<g>
	<path fill="#A8A8A8" d="M9.792,38.634v1.972h2.142v1.139H9.792v4.438c0,1.02,0.289,1.598,1.122,1.598
		c0.408,0,0.646-0.034,0.867-0.102l0.068,1.139c-0.289,0.102-0.748,0.203-1.326,0.203c-0.697,0-1.258-0.237-1.615-0.629
		c-0.408-0.459-0.578-1.189-0.578-2.158v-4.488H7.056v-1.139h1.275v-1.513L9.792,38.634z"/>
	<path fill="#A8A8A8" d="M17.139,44.975c0.034,2.022,1.309,2.855,2.805,2.855c1.071,0,1.734-0.188,2.277-0.408l0.272,1.055
		c-0.527,0.237-1.445,0.526-2.754,0.526c-2.516,0-4.045-1.683-4.045-4.147c0-2.499,1.479-4.453,3.875-4.453
		c2.686,0,3.383,2.362,3.383,3.875c0,0.307-0.018,0.544-0.051,0.714L17.139,44.975z M21.507,43.903
		c0.017-0.935-0.391-2.431-2.057-2.431c-1.53,0-2.176,1.395-2.294,2.431H21.507z"/>
	<path fill="#A8A8A8" d="M33.441,48.544c-0.392,0.187-1.258,0.476-2.363,0.476c-2.481,0-4.097-1.683-4.097-4.215
		c0-2.533,1.734-4.386,4.42-4.386c0.884,0,1.666,0.221,2.074,0.442L33.136,42c-0.357-0.188-0.918-0.391-1.734-0.391
		c-1.887,0-2.906,1.41-2.906,3.127c0,1.904,1.224,3.076,2.855,3.076c0.85,0,1.411-0.203,1.836-0.391L33.441,48.544z"/>
	<path fill="#A8A8A8" d="M37.964,36.764h1.495v5.134h0.034c0.238-0.425,0.612-0.815,1.071-1.054
		c0.441-0.271,0.969-0.425,1.529-0.425c1.105,0,2.873,0.68,2.873,3.519v4.896h-1.496v-4.726c0-1.343-0.493-2.447-1.903-2.447
		c-0.969,0-1.717,0.68-2.006,1.496c-0.085,0.203-0.103,0.424-0.103,0.713v4.964h-1.495V36.764z"/>
	<path fill="#A8A8A8" d="M75.158,48.544c-0.392,0.187-1.258,0.476-2.363,0.476c-2.481,0-4.097-1.683-4.097-4.215
		c0-2.533,1.734-4.386,4.42-4.386c0.884,0,1.666,0.221,2.074,0.442L74.853,42c-0.357-0.188-0.918-0.391-1.734-0.391
		c-1.887,0-2.906,1.41-2.906,3.127c0,1.904,1.224,3.076,2.855,3.076c0.85,0,1.411-0.203,1.836-0.391L75.158,48.544z"/>
	<path fill="#A8A8A8" d="M82.931,49.02c-2.21,0-3.944-1.631-3.944-4.232c0-2.754,1.819-4.368,4.08-4.368
		c2.362,0,3.961,1.717,3.961,4.216c0,3.06-2.125,4.385-4.08,4.385H82.931z M82.981,47.898c1.428,0,2.499-1.344,2.499-3.213
		c0-1.395-0.697-3.145-2.465-3.145c-1.751,0-2.516,1.631-2.516,3.195c0,1.802,1.02,3.162,2.464,3.162H82.981z"/>
	<path fill="#A8A8A8" d="M91.686,36.764h1.495v12.069h-1.495V36.764z"/>
	<path fill="#A8A8A8" d="M98.435,36.764h1.495v12.069h-1.495V36.764z"/>
	<path fill="#A8A8A8" d="M106.033,44.975c0.034,2.022,1.309,2.855,2.805,2.855c1.071,0,1.733-0.188,2.277-0.408l0.272,1.055
		c-0.527,0.237-1.445,0.526-2.754,0.526c-2.516,0-4.046-1.683-4.046-4.147c0-2.499,1.479-4.453,3.876-4.453
		c2.686,0,3.383,2.362,3.383,3.875c0,0.307-0.018,0.544-0.051,0.714L106.033,44.975z M110.401,43.903
		c0.018-0.935-0.391-2.431-2.057-2.431c-1.529,0-2.176,1.395-2.295,2.431H110.401z"/>
	<path fill="#A8A8A8" d="M122.335,48.544c-0.392,0.187-1.258,0.476-2.363,0.476c-2.481,0-4.097-1.683-4.097-4.215
		c0-2.533,1.734-4.386,4.42-4.386c0.884,0,1.666,0.221,2.074,0.442L122.028,42c-0.356-0.188-0.917-0.391-1.733-0.391
		c-1.887,0-2.906,1.41-2.906,3.127c0,1.904,1.224,3.076,2.855,3.076c0.85,0,1.411-0.203,1.836-0.391L122.335,48.544z"/>
	<path fill="#A8A8A8" d="M128.88,38.634v1.972h2.142v1.139h-2.142v4.438c0,1.02,0.289,1.598,1.122,1.598
		c0.407,0,0.646-0.034,0.866-0.102l0.068,1.139c-0.289,0.102-0.748,0.203-1.326,0.203c-0.696,0-1.258-0.237-1.614-0.629
		c-0.408-0.459-0.578-1.189-0.578-2.158v-4.488h-1.275v-1.139h1.275v-1.513L128.88,38.634z"/>
	<path fill="#A8A8A8" d="M136.189,39.093c-0.562,0-0.936-0.442-0.936-0.969s0.392-0.952,0.97-0.952c0.577,0,0.951,0.426,0.951,0.952
		s-0.374,0.969-0.969,0.969H136.189z M135.476,48.833v-8.228h1.495v8.228H135.476z"/>
	<path fill="#A8A8A8" d="M142.802,40.605l1.615,4.607c0.272,0.765,0.493,1.444,0.663,2.124h0.051
		c0.188-0.68,0.425-1.359,0.697-2.124l1.598-4.607h1.563l-3.229,8.228h-1.428l-3.128-8.228H142.802z"/>
	<path fill="#A8A8A8" d="M153.836,44.975c0.034,2.022,1.309,2.855,2.805,2.855c1.071,0,1.733-0.188,2.277-0.408l0.272,1.055
		c-0.527,0.237-1.445,0.526-2.754,0.526c-2.516,0-4.046-1.683-4.046-4.147c0-2.499,1.479-4.453,3.876-4.453
		c2.686,0,3.383,2.362,3.383,3.875c0,0.307-0.018,0.544-0.051,0.714L153.836,44.975z M158.204,43.903
		c0.018-0.935-0.391-2.431-2.057-2.431c-1.529,0-2.176,1.395-2.295,2.431H158.204z"/>
</g>
<circle fill-rule="evenodd" clip-rule="evenodd" fill="#89B209" cx="56.469" cy="43.37" r="6.963"/>
<g id="_x39_JGqK6_2_">
	<g>
		<path fill-rule="evenodd" clip-rule="evenodd" fill="#FFFFFF" d="M55.968,38.325c-1.311,0.56-2.257,1.868-2.604,3.353
			c-0.627,2.676,1.522,4.458,3.027,6.019c-0.103,0.143-0.14,0.425-0.209,0.636c0.149,0.02,0.299,0.047,0.443,0.082
			c0.017-2.604,3.643-2.062,3.358-5.09c-1.483-0.77-1.929,0.693-2.947,0.921C58.229,41.738,58.104,39.571,55.968,38.325z"/>
	</g>
</g>
<g>
	<path fill="#5B5B5B" d="M21.571,17.236c0.116,0.791-0.103,1.483-0.656,2.077c-0.554,0.594-1.239,0.904-2.055,0.933
		c-1.137,0.057-1.953-0.438-2.448-1.484c0.029,0,0.131,0,0.306,0c0.146,0.029,0.233,0.043,0.262,0.043
		c0.524,0,0.787-0.255,0.787-0.763c0.028-0.17-0.066-0.312-0.284-0.425c-0.219-0.112-0.445-0.169-0.678-0.169
		c-0.787,0.028-1.253,0.509-1.399,1.441c-0.087,0.65,0.656,1.737,2.229,3.264c1.749,1.695,2.725,2.897,2.929,3.604
		c0.116,0.424,0.175,0.82,0.175,1.187c0,1.414-0.758,2.544-2.273,3.392c-1.312,0.734-2.885,1.13-4.722,1.187
		c-1.865,0.057-3.425-0.197-4.678-0.763c-1.604-0.734-2.361-1.879-2.273-3.434c0.058-0.96,0.452-1.773,1.18-2.438
		s1.69-0.968,2.886-0.911c1.37,0.057,2.055,0.791,2.055,2.204c0,0.198-0.015,0.382-0.043,0.551
		c-0.263-0.339-0.744-0.479-1.443-0.424c-0.671,0.058-0.977,0.396-0.918,1.018c0.028,0.452,0.451,0.707,1.268,0.763
		c0.875,0.058,1.552-0.112,2.033-0.509c0.481-0.395,0.692-0.903,0.634-1.525c-0.029-0.452-0.496-1.103-1.399-1.95
		c-1.196-1.103-1.982-1.907-2.361-2.416c-0.787-1.074-1.108-2.205-0.962-3.392c0.116-0.904,0.656-1.724,1.618-2.459
		c1.224-0.933,2.827-1.427,4.809-1.483C19.501,14.241,21.309,15.201,21.571,17.236z"/>
	<path fill="#5B5B5B" d="M45.966,24.739c-0.816,1.498-1.938,2.854-3.366,4.069c-1.953,1.64-3.906,2.459-5.858,2.459
		c-1.895,0-2.798-0.946-2.71-2.84c-0.758,0.706-1.764,1.328-3.017,1.865c-1.399,0.593-2.667,0.875-3.804,0.848
		c-1.661-0.028-2.813-0.692-3.454-1.992c-0.467-0.933-0.642-2.063-0.525-3.392c0.204-2.007,1.049-3.942,2.536-5.808
		c1.982-2.486,4.576-3.971,7.782-4.451c0.553-0.085,1.107-0.127,1.661-0.127c1.253,0,2.375,0.184,3.366,0.551
		c0.991,0.368,1.618,0.792,1.88,1.271c-0.379,1.075-0.641,1.865-0.787,2.374c-0.379,1.526-0.612,3.25-0.7,5.172
		c-0.059,1.329,0.452,1.992,1.53,1.992c0.641,0,1.486-0.396,2.536-1.187c0.816-0.594,1.515-1.215,2.099-1.865L45.966,24.739z
		 M34.817,20.797c0.029-0.564,0-0.96-0.087-1.187c-0.175-0.367-0.524-0.537-1.049-0.509c-1.166,0.057-2.288,0.819-3.366,2.289
		c-0.962,1.3-1.458,2.416-1.486,3.349c-0.029,1.187,0.408,1.78,1.312,1.78c1.02,0,2.055-0.721,3.104-2.162
		C34.234,23.001,34.759,21.814,34.817,20.797z"/>
	<path fill="#5B5B5B" d="M58.119,17.236c0.116,0.791-0.103,1.483-0.656,2.077c-0.554,0.594-1.239,0.904-2.055,0.933
		c-1.137,0.057-1.953-0.438-2.448-1.484c0.029,0,0.131,0,0.306,0c0.146,0.029,0.233,0.043,0.262,0.043
		c0.524,0,0.787-0.255,0.787-0.763c0.028-0.17-0.066-0.312-0.284-0.425c-0.219-0.112-0.445-0.169-0.678-0.169
		c-0.787,0.028-1.253,0.509-1.399,1.441c-0.087,0.65,0.656,1.737,2.229,3.264c1.749,1.695,2.725,2.897,2.929,3.604
		c0.116,0.424,0.175,0.82,0.175,1.187c0,1.414-0.758,2.544-2.273,3.392c-1.312,0.734-2.885,1.13-4.722,1.187
		c-1.865,0.057-3.425-0.197-4.678-0.763c-1.604-0.734-2.361-1.879-2.273-3.434c0.058-0.96,0.452-1.773,1.18-2.438
		s1.69-0.968,2.886-0.911c1.37,0.057,2.055,0.791,2.055,2.204c0,0.198-0.015,0.382-0.043,0.551
		c-0.263-0.339-0.744-0.479-1.443-0.424c-0.671,0.058-0.977,0.396-0.918,1.018c0.028,0.452,0.451,0.707,1.268,0.763
		c0.875,0.058,1.552-0.112,2.033-0.509c0.481-0.395,0.692-0.903,0.634-1.525c-0.029-0.452-0.496-1.103-1.399-1.95
		c-1.196-1.103-1.982-1.907-2.361-2.416c-0.787-1.074-1.108-2.205-0.962-3.392c0.116-0.904,0.656-1.724,1.618-2.459
		c1.224-0.933,2.827-1.427,4.809-1.483C56.049,14.241,57.857,15.201,58.119,17.236z"/>
	<path fill="#5B5B5B" d="M75.039,17.236c0.116,0.791-0.103,1.483-0.656,2.077c-0.554,0.594-1.239,0.904-2.055,0.933
		c-1.137,0.057-1.953-0.438-2.448-1.484c0.029,0,0.131,0,0.306,0c0.146,0.029,0.233,0.043,0.262,0.043
		c0.524,0,0.787-0.255,0.787-0.763c0.028-0.17-0.066-0.312-0.284-0.425c-0.219-0.112-0.445-0.169-0.678-0.169
		c-0.787,0.028-1.253,0.509-1.399,1.441c-0.087,0.65,0.656,1.737,2.229,3.264c1.749,1.695,2.725,2.897,2.929,3.604
		c0.116,0.424,0.175,0.82,0.175,1.187c0,1.414-0.758,2.544-2.273,3.392c-1.312,0.734-2.885,1.13-4.722,1.187
		c-1.865,0.057-3.425-0.197-4.678-0.763c-1.604-0.734-2.361-1.879-2.273-3.434c0.058-0.96,0.452-1.773,1.18-2.438
		s1.69-0.968,2.886-0.911c1.37,0.057,2.055,0.791,2.055,2.204c0,0.198-0.015,0.382-0.043,0.551
		c-0.263-0.339-0.744-0.479-1.443-0.424c-0.671,0.058-0.977,0.396-0.918,1.018c0.028,0.452,0.451,0.707,1.268,0.763
		c0.875,0.058,1.552-0.112,2.033-0.509c0.481-0.395,0.692-0.903,0.634-1.525c-0.029-0.452-0.496-1.103-1.399-1.95
		c-1.196-1.103-1.982-1.907-2.361-2.416c-0.787-1.074-1.108-2.205-0.962-3.392c0.116-0.904,0.656-1.724,1.618-2.459
		c1.224-0.933,2.827-1.427,4.809-1.483C72.969,14.241,74.776,15.201,75.039,17.236z"/>
	<path fill="#5B5B5B" d="M99.434,24.739c-0.816,1.498-1.938,2.854-3.366,4.069c-1.953,1.64-3.906,2.459-5.858,2.459
		c-1.895,0-2.798-0.946-2.71-2.84c-0.758,0.706-1.764,1.328-3.017,1.865c-1.399,0.593-2.667,0.875-3.804,0.848
		c-1.661-0.028-2.813-0.692-3.454-1.992c-0.467-0.933-0.642-2.063-0.525-3.392c0.204-2.007,1.049-3.942,2.536-5.808
		c1.982-2.486,4.576-3.971,7.782-4.451c0.553-0.085,1.107-0.127,1.661-0.127c1.253,0,2.375,0.184,3.366,0.551
		c0.991,0.368,1.618,0.792,1.88,1.271c-0.379,1.075-0.641,1.865-0.787,2.374c-0.379,1.526-0.612,3.25-0.7,5.172
		c-0.059,1.329,0.452,1.992,1.53,1.992c0.641,0,1.486-0.396,2.536-1.187c0.816-0.594,1.515-1.215,2.099-1.865L99.434,24.739z
		 M88.285,20.797c0.029-0.564,0-0.96-0.087-1.187c-0.175-0.367-0.524-0.537-1.049-0.509c-1.166,0.057-2.288,0.819-3.366,2.289
		c-0.962,1.3-1.458,2.416-1.486,3.349c-0.029,1.187,0.408,1.78,1.312,1.78c1.02,0,2.055-0.721,3.104-2.162
		C87.702,23.001,88.227,21.814,88.285,20.797z"/>
	<path fill="#5B5B5B" d="M112.549,7.529c0.029,1.413-0.35,2.77-1.137,4.069c-0.875,1.47-1.938,2.205-3.191,2.205
		c-0.787,0-1.327-0.325-1.618-0.976c-0.146-0.282-0.262-0.875-0.35-1.78c-0.087-0.649-0.262-0.975-0.525-0.975
		c-0.524,0-1.18,1.879-1.967,5.638h3.848c0.32,0,0.451,0.142,0.393,0.424l-0.393,1.823c-0.03,0.198-0.161,0.297-0.394,0.297h-3.891
		c-0.467,2.431-0.743,4.805-0.831,7.121c-0.029,1.046,0.481,1.568,1.53,1.568c0.408,0,1.136-0.424,2.186-1.271
		c0.875-0.706,1.588-1.37,2.143-1.992l0.831,1.06c-0.816,1.498-1.939,2.854-3.366,4.069c-1.953,1.64-3.906,2.459-5.858,2.459
		c-1.895,0-2.813-1.018-2.754-3.052c0.058-1.752,0.495-5.073,1.312-9.962h-1.399c-0.321,0-0.452-0.142-0.394-0.424l0.394-1.823
		c0.029-0.197,0.16-0.297,0.394-0.297h1.399c0.32-1.922,0.524-3.095,0.612-3.519c1.137-5.228,3.542-7.842,7.214-7.842
		c1.078,0,1.807,0.396,2.186,1.187c0.028,0.085,0.204,0.834,0.524,2.247c0.204,0.792,0.597,1.187,1.181,1.187
		C110.975,8.97,111.616,8.49,112.549,7.529z"/>
	<path fill="#5B5B5B" d="M124.921,18.381c0.029,1.441-0.379,2.897-1.224,4.366c-0.933,1.668-2.026,2.501-3.279,2.501
		c-0.875,0-1.472-0.382-1.792-1.145c-0.087-0.197-0.262-0.918-0.525-2.162c-0.146-0.763-0.423-1.145-0.831-1.145
		c-0.466,0-1.049,0.707-1.749,2.12c-0.787,1.583-1.21,3.264-1.268,5.044c-0.029,1.47,0.058,2.529,0.262,3.18
		c-2.011,0.056-3.439-0.356-4.284-1.239c-0.729-0.739-1.064-1.864-1.005-3.373c0.028-0.769,0.189-1.808,0.48-3.117
		c0.291-1.31,0.452-2.334,0.481-3.074c0.029-0.513-0.175-0.77-0.612-0.77c-0.175,0-0.671,0.325-1.486,0.976l-1.006-1.163
		c0.146-0.115,1.064-0.947,2.754-2.498c1.195-1.119,2.011-1.693,2.448-1.723c0.787-0.057,1.428,0.29,1.924,1.038
		c0.408,0.664,0.612,1.443,0.612,2.338c0,0.26-0.015,0.505-0.043,0.735c1.107-1.469,1.792-2.345,2.055-2.628
		c0.99-0.989,2.055-1.483,3.191-1.483c0.903,0,1.472,0.41,1.705,1.229c0.058,0.734,0.131,1.47,0.219,2.204
		c0.087,0.82,0.437,1.229,1.049,1.229C123.347,19.822,123.988,19.342,124.921,18.381z"/>
	<path fill="#5B5B5B" d="M147.261,24.739c-0.816,1.498-1.938,2.854-3.366,4.069c-1.953,1.64-3.906,2.459-5.858,2.459
		c-1.895,0-2.798-0.946-2.71-2.84c-0.758,0.706-1.764,1.328-3.017,1.865c-1.399,0.593-2.667,0.875-3.804,0.848
		c-1.661-0.028-2.813-0.692-3.454-1.992c-0.467-0.933-0.642-2.063-0.525-3.392c0.204-2.007,1.049-3.942,2.536-5.808
		c1.982-2.486,4.576-3.971,7.782-4.451c0.553-0.085,1.107-0.127,1.661-0.127c1.253,0,2.375,0.184,3.366,0.551
		c0.991,0.368,1.618,0.792,1.88,1.271c-0.379,1.075-0.641,1.865-0.787,2.374c-0.379,1.526-0.612,3.25-0.7,5.172
		c-0.059,1.329,0.452,1.992,1.53,1.992c0.641,0,1.486-0.396,2.536-1.187c0.816-0.594,1.515-1.215,2.099-1.865L147.261,24.739z
		 M136.112,20.797c0.029-0.564,0-0.96-0.087-1.187c-0.175-0.367-0.524-0.537-1.049-0.509c-1.166,0.057-2.288,0.819-3.366,2.289
		c-0.962,1.3-1.458,2.416-1.486,3.349c-0.029,1.187,0.408,1.78,1.312,1.78c1.02,0,2.055-0.721,3.104-2.162
		C135.529,23.001,136.054,21.814,136.112,20.797z"/>
	<path fill="#5B5B5B" d="M159.414,17.236c0.116,0.791-0.103,1.483-0.656,2.077c-0.554,0.594-1.239,0.904-2.055,0.933
		c-1.137,0.057-1.953-0.438-2.448-1.484c0.029,0,0.131,0,0.306,0c0.146,0.029,0.233,0.043,0.262,0.043
		c0.524,0,0.787-0.255,0.787-0.763c0.028-0.17-0.066-0.312-0.284-0.425c-0.219-0.112-0.445-0.169-0.678-0.169
		c-0.787,0.028-1.253,0.509-1.399,1.441c-0.087,0.65,0.656,1.737,2.229,3.264c1.749,1.695,2.725,2.897,2.929,3.604
		c0.116,0.424,0.175,0.82,0.175,1.187c0,1.414-0.758,2.544-2.273,3.392c-1.312,0.734-2.885,1.13-4.722,1.187
		c-1.865,0.057-3.425-0.197-4.678-0.763c-1.604-0.734-2.361-1.879-2.273-3.434c0.058-0.96,0.452-1.773,1.18-2.438
		s1.69-0.968,2.886-0.911c1.37,0.057,2.055,0.791,2.055,2.204c0,0.198-0.015,0.382-0.043,0.551
		c-0.263-0.339-0.744-0.479-1.443-0.424c-0.671,0.058-0.977,0.396-0.918,1.018c0.028,0.452,0.451,0.707,1.268,0.763
		c0.875,0.058,1.552-0.112,2.033-0.509c0.481-0.395,0.692-0.903,0.634-1.525c-0.029-0.452-0.496-1.103-1.399-1.95
		c-1.196-1.103-1.982-1.907-2.361-2.416c-0.787-1.074-1.108-2.205-0.962-3.392c0.116-0.904,0.656-1.724,1.618-2.459
		c1.224-0.933,2.827-1.427,4.809-1.483C157.344,14.241,159.152,15.201,159.414,17.236z"/>
</g>
</svg>
